<?xml version="1.0" encoding="UTF-8" standalone="no"?>
<svg
   xmlns:dc="http://purl.org/dc/elements/1.1/"
   xmlns:cc="http://creativecommons.org/ns#"
   xmlns:rdf="http://www.w3.org/1999/02/22-rdf-syntax-ns#"
   xmlns:svg="http://www.w3.org/2000/svg"
   xmlns="http://www.w3.org/2000/svg"
   xmlns:sodipodi="http://sodipodi.sourceforge.net/DTD/sodipodi-0.dtd"
   xmlns:inkscape="http://www.inkscape.org/namespaces/inkscape"
   version="1.1"
   id="svg2"
   xml:space="preserve"
   width="3686"
   height="1297.2533"
   viewBox="0 0 3686 1297.2533"
   sodipodi:docname="epam.eps"><metadata
     id="metadata8"><rdf:RDF><cc:Work
         rdf:about=""><dc:format>image/svg+xml</dc:format><dc:type
           rdf:resource="http://purl.org/dc/dcmitype/StillImage" /></cc:Work></rdf:RDF></metadata><defs
     id="defs6" /><sodipodi:namedview
     pagecolor="#ffffff"
     bordercolor="#666666"
     borderopacity="1"
     objecttolerance="10"
     gridtolerance="10"
     guidetolerance="10"
     inkscape:pageopacity="0"
     inkscape:pageshadow="2"
     inkscape:window-width="640"
     inkscape:window-height="480"
     id="namedview4" /><g
     id="g10"
     inkscape:groupmode="layer"
     inkscape:label="ink_ext_XXXXXX"
     transform="matrix(1.3333333,0,0,-1.3333333,0,1297.2533)"><g
       id="g12"
       transform="scale(0.1)"><path
         d="M 5212.66,5383.86 V 3597.72 c 0,-452.93 226.43,-679.36 679.31,-679.36 h 197.75 c 452.86,0 679.31,226.43 679.31,679.36 v 878.14 H 7816.2 v -835.1 c 0,-1146.58 -579.92,-1727.57 -1727.6,-1727.57 h -223.11 c -1146.62,0 -1727.64,579.89 -1727.64,1592.83 v 4360.99 c 0,1281.33 579.93,1861.25 1727.64,1861.25 h 226.42 c 1146.59,0 1727.6,-581.02 1727.6,-1727.59 V 5383.86 Z m 0,1036.11 h 1536.49 v 1623.76 c 0,452.9 -226.44,679.36 -679.34,679.36 h -170.09 c -452.89,0 -679.34,-226.46 -679.34,-679.36 l -7.72,-1623.76"
         style="fill:#50565b;fill-opacity:1;fill-rule:nonzero;stroke:none"
         id="path14" /><path
         d="M 8516.53,9643.21 H 9592.4 v -495.97 c 83.88,91.1 176.15,172.69 276.84,244.73 100.69,72.05 207.66,133.07 320.96,183.07 113.3,49.98 230.5,87.89 351.5,113.69 121.1,25.81 243.6,39 367.4,39.53 920.1,0 1373,-608.63 1373,-1514.4 V 3428.67 c 0,-905.76 -452.9,-1514.38 -1373,-1514.38 -122.6,-0.05 -244,12.04 -364.1,36.22 -120.2,24.13 -236.8,59.94 -349.8,107.35 -113.1,47.41 -220.34,105.54 -321.78,174.31 -101.45,68.83 -195.14,146.94 -281,234.42 L 9592.4,0 H 8516.53 Z M 9592.4,3329.3 c 67.58,-61.6 140.06,-116.63 217.53,-165.09 77.46,-48.51 158.65,-89.69 243.57,-123.56 84.8,-33.86 172.1,-59.84 261.7,-78 89.5,-18.1 180,-28.09 271.4,-29.95 396.5,0 623,184.51 623,623.03 v 4528.88 c 0,441.83 -226.5,623 -623,623 -91.4,-1.83 -181.9,-11.81 -271.4,-29.95 -89.6,-18.13 -176.9,-44.14 -261.7,-78 -84.92,-33.85 -166.11,-75.03 -243.57,-123.52 -77.47,-48.49 -149.95,-103.52 -217.53,-165.07 V 3329.3"
         style="fill:#50565b;fill-opacity:1;fill-rule:nonzero;stroke:none"
         id="path16" /><path
         d="m 12934.9,4660.33 c 0,948.86 311.6,1325.53 1132.3,1613.84 l 1443.7,495.97 v 1273.59 c 0,452.9 -226.4,693.71 -679.3,693.71 h -175.7 c -452.8,0 -679.3,-240.81 -679.3,-693.71 v -1082.5 h -1041.7 v 1040.53 c 0,1146.58 580,1727.6 1727.6,1727.6 h 203.3 c 1146.6,0 1727.6,-581.02 1727.6,-1727.6 V 1999.32 h -1075.9 v 481.62 c -84.8,-89.39 -177.7,-169.31 -278.8,-239.78 -101,-70.49 -208.2,-130.09 -321.3,-178.78 -113.2,-48.72 -230.1,-85.54 -350.8,-110.47 -120.6,-24.92 -242.6,-37.47 -365.8,-37.62 -863.8,0 -1260.3,495.97 -1260.3,1345.37 z M 15512,3287.3 V 5808 l -976.5,-370.03 c -396.5,-155.76 -523.6,-353.46 -523.6,-793.1 V 3481.69 c 0,-367.8 184.5,-552.29 523.6,-552.29 339.1,0 621.9,117.08 976.5,357.9 v 0"
         style="fill:#50565b;fill-opacity:1;fill-rule:nonzero;stroke:none"
         id="path18" /><path
         d="m 20939,1998.22 h -1075.9 v 6158.19 c 0,382.21 -184.5,552.31 -509.2,552.31 -297.2,0 -608.7,-110.46 -994.2,-382.19 V 1998.22 H 17287.1 V 9643.21 H 18363 v -495.97 c 311.5,297.14 722.4,581.02 1316.7,581.02 552.3,0 920.1,-226.44 1117.8,-622.98 382.2,325.86 835.1,622.98 1458.1,622.98 835.1,0 1260.4,-509.21 1260.4,-1345.4 V 1998.22 h -1081.4 v 6158.19 c 0,382.21 -184.5,552.31 -509.2,552.31 -297.2,0 -608.7,-110.46 -994.2,-382.19 l 7.8,-6328.31"
         style="fill:#50565b;fill-opacity:1;fill-rule:nonzero;stroke:none"
         id="path20" /><path
         d="M 2761.53,8939.57 V 7533.42 L 951.074,5808 2761.53,4113.55 V 2677.57 L 0,5275.59 v 1033.93 l 2761.53,2630.05"
         style="fill:#32bde9;fill-opacity:1;fill-rule:nonzero;stroke:none"
         id="path22" /><path
         d="M 27645,6309.52 V 5275.59 L 24883.5,2677.57 V 4113.55 L 26693.9,5808 24883.5,7533.42 V 8939.57 L 27645,6309.52"
         style="fill:#32bde9;fill-opacity:1;fill-rule:nonzero;stroke:none"
         id="path24" /></g></g></svg>
